<svg width="36" height="36" viewBox="0 0 36 36" fill="none" xmlns="http://www.w3.org/2000/svg">
<path fill-rule="evenodd" clip-rule="evenodd" d="M26.9074 4.84252C25.4038 3.12941 22.6874 2.39551 19.212 2.39551H9.12311C8.41294 2.39551 7.80823 2.91222 7.69748 3.61373L3.49663 30.2502C3.41364 30.7758 3.81997 31.2509 4.35194 31.2509H10.5801L10.1503 33.9766C10.0779 34.4364 10.433 34.8523 10.8985 34.8523H16.1481C16.7697 34.8523 17.2987 34.4001 17.3955 33.7865L17.4471 33.5197L18.436 27.2491L18.4998 26.9027C18.5967 26.2888 19.1257 25.8369 19.7469 25.8369H20.5321C25.618 25.8369 29.6003 23.7707 30.7638 17.7956C31.2501 15.299 30.9989 13.215 29.7131 11.7498C29.3239 11.3068 28.8402 10.9402 28.2759 10.6414C28.672 8.11667 28.2732 6.3986 26.9074 4.84252Z" fill="white" fill-opacity="0.5"/>
<path fill-rule="evenodd" clip-rule="evenodd" d="M28.2759 10.6421C28.672 8.1172 28.2732 6.39898 26.9074 4.84275C25.4038 3.12948 22.6874 2.39551 19.212 2.39551H9.12311C8.41294 2.39551 7.80823 2.91227 7.69748 3.61384L3.49663 30.2528C3.41364 30.7785 3.81997 31.2536 4.35194 31.2536H10.5801L12.1446 21.333L12.096 21.6442C12.2068 20.9426 12.8065 20.4255 13.5167 20.4255H16.4771C22.2907 20.4255 26.8426 18.0636 28.1727 11.233C28.2121 11.031 28.2458 10.8349 28.2759 10.6421Z" fill="white" fill-opacity="0.66"/>
<path fill-rule="evenodd" clip-rule="evenodd" d="M13.8252 10.6759C13.892 10.2537 14.1627 9.90817 14.5274 9.73327C14.6934 9.65392 14.8785 9.60962 15.0726 9.60962H22.9807C23.9177 9.60962 24.7912 9.67112 25.5896 9.79973C25.8181 9.83642 26.0399 9.87874 26.2558 9.92668C26.4714 9.97429 26.681 10.0279 26.8836 10.0874C26.9851 10.1168 27.0847 10.1479 27.1829 10.1806C27.575 10.3105 27.94 10.4643 28.2759 10.6421C28.672 8.1172 28.2732 6.39898 26.9074 4.84275C25.4038 3.12948 22.6874 2.39551 19.212 2.39551H9.12311C8.41294 2.39551 7.80823 2.91227 7.69748 3.61384L3.49663 30.2528C3.41364 30.7785 3.81997 31.2536 4.35194 31.2536H10.5801L13.8252 10.6759Z" fill="white"/>
</svg>
