<svg width="15" height="17" viewBox="0 0 15 17" fill="none" xmlns="http://www.w3.org/2000/svg">
<g clip-path="url(#clip0)">
<path d="M12.1965 9.03189C12.177 6.88222 13.9728 5.8502 14.054 5.79989C13.0435 4.33858 11.4709 4.13839 10.9098 4.11484C9.57224 3.98102 8.29855 4.89313 7.62054 4.89313C6.94254 4.89313 5.89412 4.13411 4.78505 4.15553C3.32507 4.17694 1.98097 4.99376 1.22932 6.28485C-0.285901 8.88308 0.842664 12.7339 2.31781 14.8428C3.04022 15.8738 3.90018 17.0353 5.03091 16.9925C6.12048 16.9497 6.53205 16.2966 7.84691 16.2966C9.16176 16.2966 9.53217 16.9925 10.6835 16.9722C11.8543 16.9497 12.5973 15.9187 13.3143 14.8846C14.1417 13.6877 14.484 12.5294 14.5035 12.4684C14.4775 12.4576 12.2204 11.6023 12.1965 9.03189Z" fill="#243656"/>
<path d="M10.0338 2.72008C10.6338 2.00174 11.0389 1.0029 10.9273 0.00732422C10.0629 0.0416189 9.01675 0.576869 8.39613 1.29521C7.84052 1.93008 7.35315 2.94707 7.48522 3.92237C8.44919 3.99624 9.43367 3.43736 10.0338 2.72008Z" fill="#243656"/>
</g>
<defs>
<clipPath id="clip0">
<rect width="14" height="17" fill="white" transform="translate(0.507324)"/>
</clipPath>
</defs>
</svg>
