<svg width="21" height="18" viewBox="0 0 21 18" fill="none" xmlns="http://www.w3.org/2000/svg">
<path d="M0.543685 13.9697C0.604287 13.8737 0.701251 13.8677 0.834575 13.9517C3.83531 15.6831 7.25134 16.5842 10.7248 16.5604C13.1318 16.5546 15.517 16.1094 17.7607 15.2471C17.8213 15.2231 17.9092 15.1871 18.0243 15.1391C18.1395 15.0911 18.2213 15.0551 18.2698 15.0312C18.3416 14.9924 18.4256 14.982 18.5048 15.002C18.5841 15.022 18.6528 15.071 18.697 15.1391C18.8 15.283 18.7667 15.415 18.597 15.5349C18.3789 15.6908 18.1001 15.8708 17.7607 16.0747C16.6694 16.7064 15.4946 17.1848 14.27 17.496C13.0429 17.8242 11.7779 17.9935 10.5067 17.9998C8.67245 18.0101 6.85277 17.6775 5.14338 17.0192C3.47795 16.3773 1.9441 15.4416 0.616408 14.2575C0.585926 14.2374 0.560334 14.2108 0.541473 14.1797C0.522612 14.1486 0.51095 14.1137 0.507324 14.0776C0.508232 14.0388 0.520901 14.0012 0.543685 13.9697ZM6.01605 8.84206C5.99425 8.08803 6.2103 7.346 6.63419 6.71905C7.05636 6.12329 7.64351 5.66095 8.32499 5.38768C9.09986 5.08157 9.91341 4.88181 10.743 4.79395C11.0703 4.75797 11.6036 4.70999 12.3429 4.65002V4.34416C12.3888 3.81551 12.3014 3.28383 12.0884 2.79689C11.9508 2.61384 11.7686 2.46831 11.5587 2.37391C11.3489 2.27952 11.1183 2.23934 10.8885 2.25714H10.743C10.3685 2.28378 10.0092 2.41476 9.70671 2.63497C9.41283 2.85548 9.21202 3.176 9.14311 3.53454C9.13593 3.63317 9.0966 3.72683 9.03104 3.80145C8.96547 3.87607 8.8772 3.92762 8.7795 3.94835L6.68873 3.69647C6.48269 3.64849 6.37966 3.54054 6.37966 3.37262C6.38057 3.33007 6.38668 3.28778 6.39784 3.24668C6.46824 2.76754 6.63979 2.30845 6.90135 1.89927C7.1629 1.49009 7.50859 1.14001 7.91592 0.871792C8.765 0.342602 9.74024 0.0446935 10.743 0.00819678H11.1975C12.3739 -0.0617717 13.5324 0.31825 14.4337 1.0697C14.5553 1.19019 14.6678 1.31949 14.77 1.45652C14.8596 1.5742 14.9416 1.69739 15.0155 1.82535C15.0905 1.97349 15.1455 2.13077 15.1791 2.29313C15.2276 2.49703 15.2639 2.63796 15.2882 2.71593C15.3231 2.88166 15.3413 3.0504 15.3427 3.21969C15.3548 3.47757 15.3609 3.6305 15.3609 3.67848V8.03244C15.3574 8.32287 15.4035 8.61179 15.4972 8.88703C15.5586 9.08413 15.6473 9.27184 15.7609 9.44477C15.8457 9.55872 15.9851 9.74163 16.179 9.99352C16.2429 10.0769 16.2808 10.177 16.2881 10.2814C16.2863 10.3319 16.2722 10.3812 16.2468 10.4251C16.2215 10.469 16.1857 10.5061 16.1427 10.5333C15.1367 11.3969 14.5912 11.8646 14.5064 11.9366C14.4304 11.9901 14.3409 12.0217 14.2479 12.0281C14.1549 12.0344 14.0619 12.0152 13.9792 11.9726C13.8095 11.8287 13.661 11.6907 13.5337 11.5588C13.4065 11.4268 13.3156 11.3309 13.261 11.2709C13.1668 11.1588 13.0788 11.0417 12.9974 10.9201C12.8762 10.7462 12.7914 10.6292 12.7429 10.5692C12.2169 11.1993 11.5246 11.6727 10.743 11.9366C10.245 12.0672 9.7309 12.1278 9.21584 12.1165C8.79441 12.1318 8.37412 12.0641 7.97932 11.9174C7.58453 11.7707 7.2231 11.5479 6.91599 11.2619C6.60438 10.9425 6.36343 10.5624 6.20849 10.1458C6.05354 9.72915 5.988 9.28514 6.01605 8.84206ZM9.14311 8.48222C9.12252 8.88683 9.2482 9.28547 9.49764 9.6067C9.613 9.74525 9.75919 9.85551 9.92478 9.92886C10.0904 10.0022 10.2708 10.0367 10.4521 10.0295C10.504 10.0278 10.5557 10.0218 10.6067 10.0115C10.6516 10.0022 10.6972 9.99617 10.743 9.99352C10.9989 9.92494 11.2368 9.80269 11.4408 9.63505C11.6447 9.46742 11.8097 9.25832 11.9247 9.02197C12.0603 8.78856 12.1613 8.53711 12.2247 8.27532C12.2826 8.06045 12.3191 7.84052 12.3338 7.61863C12.3399 7.45071 12.3429 7.17484 12.3429 6.79102V6.34123C11.8057 6.32479 11.2684 6.37313 10.743 6.48516C10.2765 6.56858 9.85677 6.81737 9.56229 7.18496C9.2678 7.55255 9.11878 8.01375 9.14311 8.48222ZM16.779 14.2755C16.8073 14.2221 16.8441 14.1735 16.8881 14.1316C17.153 13.9455 17.4482 13.8055 17.7607 13.7178C18.2 13.6009 18.6514 13.5345 19.1061 13.5199C19.2215 13.5076 19.3381 13.5136 19.4515 13.5379C19.9969 13.5858 20.3242 13.6758 20.4333 13.8077C20.4884 13.9066 20.5136 14.019 20.506 14.1316V14.2575C20.4855 14.7693 20.3683 15.2727 20.1606 15.7418C19.9583 16.2719 19.6274 16.7445 19.197 17.1182C19.1521 17.1596 19.0945 17.1849 19.0334 17.1901C19.008 17.1899 18.9831 17.1837 18.9606 17.1722C18.8879 17.1362 18.8697 17.0702 18.9061 16.9742C19.2512 16.2907 19.4785 15.5549 19.5788 14.7973C19.5872 14.696 19.5617 14.5948 19.5061 14.5094C19.3849 14.3655 19.0455 14.2935 18.4879 14.2935C18.2819 14.2935 18.0395 14.3055 17.7607 14.3295C17.4577 14.3655 17.1789 14.4015 16.9244 14.4374C16.8731 14.4435 16.8214 14.4307 16.779 14.4015C16.768 14.3934 16.7603 14.3818 16.757 14.3687C16.7536 14.3556 16.755 14.3417 16.7608 14.3295C16.763 14.3104 16.7692 14.2921 16.779 14.2755Z" fill="#243656"/>
</svg>
